<svg width="409.812" height="379.841" xmlns="http://www.w3.org/2000/svg"><g data-name="Groupe 85"><g data-name="Groupe 81"><g data-name="Groupe 75" style="fill:#ececec"><g data-name="Groupe 68" style="fill:#ececec"><g data-name="Groupe 2" opacity=".5" style="fill:#ececec" fill="#49c424"><path data-name="Ellipse 1" d="M183.68 3a182.032 182.032 0 0 0-36.417 3.671 179.674 179.674 0 0 0-64.6 27.185 181.217 181.217 0 0 0-65.465 79.5 179.75 179.75 0 0 0-10.527 33.908 182.472 182.472 0 0 0 0 72.833 179.674 179.674 0 0 0 27.185 64.6 181.217 181.217 0 0 0 79.5 65.465 179.75 179.75 0 0 0 33.911 10.527 182.472 182.472 0 0 0 72.833 0 179.674 179.674 0 0 0 64.6-27.189 181.217 181.217 0 0 0 65.465-79.5 179.75 179.75 0 0 0 10.524-33.9 182.472 182.472 0 0 0 0-72.833 179.674 179.674 0 0 0-27.185-64.6 181.217 181.217 0 0 0-79.5-65.465A179.75 179.75 0 0 0 220.1 6.671 182.032 182.032 0 0 0 183.68 3m0-3A183.68 183.68 0 1 1 0 183.68 183.68 183.68 0 0 1 183.68 0z" transform="translate(22.925 7.853)" opacity=".265" style="fill:#ececec"/><path data-name="Ellipse 2" d="M184.4 3a183.452 183.452 0 0 0-36.563 3.671 180.386 180.386 0 0 0-91.711 304.765 181.772 181.772 0 0 0 278.694-26.743 180.155 180.155 0 0 0-22.151-228.769A181.264 181.264 0 0 0 184.4 3m0-3c101.84 0 184.4 82.236 184.4 183.68s-82.562 183.68-184.4 183.68C82.562 367.36 0 285.124 0 183.68S82.558 0 184.4 0z" transform="translate(12.88 7.853)" opacity=".458" style="fill:#ececec"/><path data-name="Ellipse 3" d="M190.138 3A195.033 195.033 0 0 0 152.4 6.675a189.705 189.705 0 0 0-66.931 27.207 187.234 187.234 0 0 0-27.7 22.074A183.543 183.543 0 0 0 34.931 82.7a178.819 178.819 0 0 0-17.241 30.687 175.277 175.277 0 0 0 0 140.587 178.817 178.817 0 0 0 17.241 30.685A183.54 183.54 0 0 0 57.774 311.4a187.234 187.234 0 0 0 27.7 22.074 189.705 189.705 0 0 0 66.926 27.211 195.606 195.606 0 0 0 75.475 0 189.705 189.705 0 0 0 66.931-27.207A187.234 187.234 0 0 0 322.5 311.4a183.54 183.54 0 0 0 22.843-26.746 178.817 178.817 0 0 0 17.241-30.685 175.277 175.277 0 0 0 0-140.587 178.819 178.819 0 0 0-17.24-30.682A183.543 183.543 0 0 0 322.5 55.956a187.234 187.234 0 0 0-27.7-22.074 189.705 189.705 0 0 0-66.925-27.207A195.033 195.033 0 0 0 190.138 3m0-3c105.01 0 190.138 82.236 190.138 183.68s-85.128 183.68-190.138 183.68S0 285.124 0 183.68 85.128 0 190.138 0z" transform="translate(22.925 7.853)" style="fill:#ececec"/><path data-name="Ellipse 4" d="M187.268 3a185.646 185.646 0 0 0-37.14 3.744 183.243 183.243 0 0 0-65.884 27.724 184.814 184.814 0 0 0-66.764 81.075 183.318 183.318 0 0 0-10.736 34.585 186.1 186.1 0 0 0 0 74.279 183.243 183.243 0 0 0 27.725 65.884 184.814 184.814 0 0 0 81.075 66.764 183.318 183.318 0 0 0 34.585 10.736 186.1 186.1 0 0 0 74.279 0 183.243 183.243 0 0 0 65.884-27.725 184.814 184.814 0 0 0 66.764-81.075 183.317 183.317 0 0 0 10.736-34.585 186.1 186.1 0 0 0 0-74.279 183.243 183.243 0 0 0-27.725-65.884 184.814 184.814 0 0 0-81.075-66.764 183.317 183.317 0 0 0-34.585-10.735A185.646 185.646 0 0 0 187.268 3m0-3c103.425 0 187.267 83.843 187.267 187.268s-83.842 187.267-187.267 187.267S0 290.693 0 187.268 83.843 0 187.268 0z" opacity=".653" style="fill:#ececec" transform="translate(-.035 .678)"/><path data-name="Ellipse 5" d="M193.18 3a203.119 203.119 0 0 0-38.365 3.644A197.926 197.926 0 0 0 119.1 17.091a194.2 194.2 0 0 0-32.318 16.527A189.564 189.564 0 0 0 58.639 55.5 183.176 183.176 0 0 0 35.43 82a176 176 0 0 0-17.512 30.4 169.783 169.783 0 0 0 0 139.25 176 176 0 0 0 17.512 30.4 183.175 183.175 0 0 0 23.208 26.5 189.566 189.566 0 0 0 28.144 21.88 194.2 194.2 0 0 0 32.318 16.534 197.926 197.926 0 0 0 35.719 10.448 203.782 203.782 0 0 0 76.729 0 197.925 197.925 0 0 0 35.719-10.448 194.2 194.2 0 0 0 32.314-16.527 189.566 189.566 0 0 0 28.144-21.88 183.173 183.173 0 0 0 23.208-26.5 176 176 0 0 0 17.512-30.4 169.783 169.783 0 0 0 0-139.25A176 176 0 0 0 350.931 82a183.175 183.175 0 0 0-23.208-26.5 189.564 189.564 0 0 0-28.144-21.88 194.2 194.2 0 0 0-32.314-16.527 197.925 197.925 0 0 0-35.72-10.449A203.119 203.119 0 0 0 193.18 3m0-3c106.691 0 193.18 81.5 193.18 182.028 0 100.528-86.49 182.028-193.18 182.028C86.49 364.056 0 282.559 0 182.028 0 81.497 86.49 0 193.18 0z" transform="translate(22.925 16.463)" opacity=".187" style="fill:#ececec"/></g><g data-name="Groupe 66" style="fill:#ececec"><g data-name="Groupe 2" opacity=".5" style="fill:#ececec" fill="#49c424"><path data-name="Ellipse 1" d="M183.68 3a182.032 182.032 0 0 0-36.417 3.671 179.674 179.674 0 0 0-64.6 27.185 181.217 181.217 0 0 0-65.465 79.5 179.75 179.75 0 0 0-10.527 33.908 182.472 182.472 0 0 0 0 72.833 179.674 179.674 0 0 0 27.185 64.6 181.217 181.217 0 0 0 79.5 65.465 179.75 179.75 0 0 0 33.911 10.527 182.472 182.472 0 0 0 72.833 0 179.674 179.674 0 0 0 64.6-27.189 181.217 181.217 0 0 0 65.465-79.5 179.75 179.75 0 0 0 10.524-33.9 182.472 182.472 0 0 0 0-72.833 179.674 179.674 0 0 0-27.185-64.6 181.217 181.217 0 0 0-79.5-65.465A179.75 179.75 0 0 0 220.1 6.671 182.032 182.032 0 0 0 183.68 3m0-3A183.68 183.68 0 1 1 0 183.68 183.68 183.68 0 0 1 183.68 0z" transform="translate(22.925 7.853)" opacity=".265" style="fill:#ececec"/><path data-name="Ellipse 2" d="M184.4 3a183.452 183.452 0 0 0-36.563 3.671 180.386 180.386 0 0 0-91.711 304.765 181.772 181.772 0 0 0 278.694-26.743 180.155 180.155 0 0 0-22.151-228.769A181.264 181.264 0 0 0 184.4 3m0-3c101.84 0 184.4 82.236 184.4 183.68s-82.562 183.68-184.4 183.68C82.562 367.36 0 285.124 0 183.68S82.558 0 184.4 0z" transform="translate(12.88 7.853)" opacity=".458" style="fill:#ececec"/><path data-name="Ellipse 3" d="M190.138 3A195.033 195.033 0 0 0 152.4 6.675a189.705 189.705 0 0 0-66.931 27.207 187.234 187.234 0 0 0-27.7 22.074A183.543 183.543 0 0 0 34.931 82.7a178.819 178.819 0 0 0-17.241 30.687 175.277 175.277 0 0 0 0 140.587 178.817 178.817 0 0 0 17.241 30.685A183.54 183.54 0 0 0 57.774 311.4a187.234 187.234 0 0 0 27.7 22.074 189.705 189.705 0 0 0 66.926 27.211 195.606 195.606 0 0 0 75.475 0 189.705 189.705 0 0 0 66.931-27.207A187.234 187.234 0 0 0 322.5 311.4a183.54 183.54 0 0 0 22.843-26.746 178.817 178.817 0 0 0 17.241-30.685 175.277 175.277 0 0 0 0-140.587 178.819 178.819 0 0 0-17.24-30.682A183.543 183.543 0 0 0 322.5 55.956a187.234 187.234 0 0 0-27.7-22.074 189.705 189.705 0 0 0-66.925-27.207A195.033 195.033 0 0 0 190.138 3m0-3c105.01 0 190.138 82.236 190.138 183.68s-85.128 183.68-190.138 183.68S0 285.124 0 183.68 85.128 0 190.138 0z" transform="translate(22.925 7.853)" style="fill:#ececec"/><path data-name="Ellipse 4" d="M187.268 3a185.646 185.646 0 0 0-37.14 3.744 183.243 183.243 0 0 0-65.884 27.724 184.814 184.814 0 0 0-66.764 81.075 183.318 183.318 0 0 0-10.736 34.585 186.1 186.1 0 0 0 0 74.279 183.243 183.243 0 0 0 27.725 65.884 184.814 184.814 0 0 0 81.075 66.764 183.318 183.318 0 0 0 34.585 10.736 186.1 186.1 0 0 0 74.279 0 183.243 183.243 0 0 0 65.884-27.725 184.814 184.814 0 0 0 66.764-81.075 183.317 183.317 0 0 0 10.736-34.585 186.1 186.1 0 0 0 0-74.279 183.243 183.243 0 0 0-27.725-65.884 184.814 184.814 0 0 0-81.075-66.764 183.317 183.317 0 0 0-34.585-10.735A185.646 185.646 0 0 0 187.268 3m0-3c103.425 0 187.267 83.843 187.267 187.268s-83.842 187.267-187.267 187.267S0 290.693 0 187.268 83.843 0 187.268 0z" opacity=".653" style="fill:#ececec" transform="translate(-.035 .678)"/><path data-name="Ellipse 5" d="M193.18 3a203.119 203.119 0 0 0-38.365 3.644A197.926 197.926 0 0 0 119.1 17.091a194.2 194.2 0 0 0-32.318 16.527A189.564 189.564 0 0 0 58.639 55.5 183.176 183.176 0 0 0 35.43 82a176 176 0 0 0-17.512 30.4 169.783 169.783 0 0 0 0 139.25 176 176 0 0 0 17.512 30.4 183.175 183.175 0 0 0 23.208 26.5 189.566 189.566 0 0 0 28.144 21.88 194.2 194.2 0 0 0 32.318 16.534 197.926 197.926 0 0 0 35.719 10.448 203.782 203.782 0 0 0 76.729 0 197.925 197.925 0 0 0 35.719-10.448 194.2 194.2 0 0 0 32.314-16.527 189.566 189.566 0 0 0 28.144-21.88 183.173 183.173 0 0 0 23.208-26.5 176 176 0 0 0 17.512-30.4 169.783 169.783 0 0 0 0-139.25A176 176 0 0 0 350.931 82a183.175 183.175 0 0 0-23.208-26.5 189.564 189.564 0 0 0-28.144-21.88 194.2 194.2 0 0 0-32.314-16.527 197.925 197.925 0 0 0-35.72-10.449A203.119 203.119 0 0 0 193.18 3m0-3c106.691 0 193.18 81.5 193.18 182.028 0 100.528-86.49 182.028-193.18 182.028C86.49 364.056 0 282.559 0 182.028 0 81.497 86.49 0 193.18 0z" transform="translate(22.925 16.463)" opacity=".187" style="fill:#ececec"/></g></g></g></g><g data-name="Groupe 76" style="fill:#fff"><path d="M204.168 209.864q13.8 21.976 17.883 34.706 4.224 12.579 4.224 20.611a35.114 35.114 0 0 1-4.787 17.126 40.426 40.426 0 0 1-13.236 14.246 34.632 34.632 0 0 1-19.995 5.759q-17.32 0-27.88-9.851a32.365 32.365 0 0 1-10.561-24.7 58.571 58.571 0 0 1 2.816-16.52q2.816-9.4 13.377-25.916l58.436-91.994c7.885-12.326 19.1-26.035 23.886-32.7 4.786-6.665 7.278-9.539 7.655-9.581.377-.042 3.16 13.1 3.266 12.946-.389.717-3.681 4.943-15.05 22.078-5.183 6.284-9.712 14.485-17.222 26.2l-52.663 82.749a92.356 92.356 0 0 0-8.449 16.671q-3.1 8.487-3.1 14.4 0 11.67 6.2 17.277 6.2 5.456 12.814 5.456a15.985 15.985 0 0 0 12.954-6.214q5.21-6.214 5.21-15.61a40.328 40.328 0 0 0-2.957-14.7 88.825 88.825 0 0 0-8.449-16.671L138.129 155.3q-10.7-17.126-17.038-25.158-6.337-8.184-10.138-10.609a12.164 12.164 0 0 0-6.9-2.576q-5.21 0-9.153 5.911-3.943 5.911-3.942 17.432H84.34a43.347 43.347 0 0 1-.563-5.3v-8.487q0-16.823 7.04-28.038Q97.857 87.1 110.108 87.1a24.368 24.368 0 0 1 12.392 3.339q5.773 3.334 13.659 13.488 8.026 10.154 20.84 30.766z" transform="translate(-58.023 5.907)" style="fill:#fff"/><path data-name="Tracé 1" d="M1351.62 465.176c-12.383 17.48-12.18-2.213-4.2-12.753 7.98-10.54 19.248-25.238 29.872-28.38 10.624-3.142 18.7 3.5 18.7 3.5s5.279 1.878 8.783 10.423c3.504 8.545 5.236 23.758 5.236 23.758l26.315-26.009s12.6-11.668 27.8-11.668c15.2 0 21.95 1.128 32.969 11.668 11.019 10.54 11.105 30.485 11.105 30.485l1.519 182.943c-.038.011-26.735-.023-26.762 0-.027.023-1.759-174.386-2.072-180.829-.313-6.443-5.624-16.851-16.763-21.606-11.139-4.755-20.664-1.3-27.8 2.945-7.136 4.245-26.315 27.4-26.315 27.4v172.09H1383.3V477.056s.09-29.041 0-31.379c-.09-2.338-1.305-10.871-4.846-11.285-3.541-.414-5.951.06-11.778 9.027-5.827 8.967-2.676 4.281-15.056 21.757z" transform="translate(-1155.792 -347.532)" style="fill:#fff"/></g></g></g></svg>