<?xml version="1.0" standalone="no"?>
<!DOCTYPE svg PUBLIC "-//W3C//DTD SVG 20010904//EN"
 "http://www.w3.org/TR/2001/REC-SVG-20010904/DTD/svg10.dtd">
<svg version="1.0" xmlns="http://www.w3.org/2000/svg"
 width="700.000000pt" height="700.000000pt" viewBox="0 0 700.000000 700.000000"
 preserveAspectRatio="xMidYMid meet">
<metadata>
Created by potrace 1.14, written by Peter Selinger 2001-2017
</metadata>
<g transform="translate(0.000000,700.000000) scale(0.100000,-0.100000)"
fill="#000000" stroke="none">
<path d="M3278 6995 c-2 -1 -39 -5 -83 -9 -393 -30 -840 -152 -1205 -329 -776
-376 -1374 -1001 -1710 -1787 -124 -290 -224 -664 -255 -947 -27 -249 -27
-669 0 -834 2 -13 6 -46 10 -74 12 -98 22 -157 50 -285 53 -248 166 -561 294
-812 201 -397 475 -751 811 -1047 103 -91 363 -289 395 -301 12 -4 27 -15 34
-24 7 -9 17 -16 21 -16 4 0 45 -23 91 -51 115 -69 359 -188 503 -243 292 -114
575 -182 936 -223 133 -15 729 -6 759 11 3 2 30 6 59 10 261 31 609 127 879
242 707 302 1301 832 1678 1498 58 103 175 337 175 351 0 3 8 24 19 48 32 72
40 94 81 217 46 137 99 338 114 435 4 20 8 40 10 44 2 3 7 33 11 66 3 32 8 62
10 65 1 3 6 34 10 70 4 36 9 83 11 105 9 81 11 523 3 607 -13 144 -22 210 -39
308 -6 36 -13 79 -16 95 -3 17 -21 91 -39 165 -179 719 -588 1368 -1167 1850
-464 386 -1090 669 -1673 756 -27 4 -57 9 -65 10 -8 2 -44 6 -80 10 -36 3 -78
8 -95 11 -32 5 -531 13 -537 8z m547 -189 c16 -3 52 -8 80 -11 105 -13 131
-17 180 -27 28 -5 64 -12 80 -14 17 -3 75 -17 130 -31 55 -14 109 -27 119 -29
33 -6 145 -44 271 -92 151 -56 319 -135 458 -215 60 -34 117 -67 128 -73 10
-6 27 -18 37 -27 10 -10 22 -17 25 -17 15 0 256 -179 361 -269 85 -72 322
-319 400 -416 251 -313 439 -656 567 -1033 41 -122 91 -309 108 -407 6 -33 13
-71 16 -85 13 -65 30 -208 40 -326 5 -56 5 -412 1 -464 -2 -19 -7 -71 -10
-115 -4 -44 -9 -87 -11 -95 -2 -8 -7 -37 -11 -65 -3 -27 -8 -59 -11 -70 -2
-11 -10 -53 -18 -93 -223 -1122 -1068 -2088 -2154 -2463 -116 -40 -274 -87
-321 -96 -14 -2 -50 -10 -80 -18 -56 -13 -118 -25 -157 -30 -13 -2 -40 -6 -60
-9 -231 -38 -669 -43 -913 -11 -274 37 -614 124 -815 209 -227 96 -410 190
-570 294 -204 132 -380 276 -560 456 -455 456 -754 1006 -894 1641 -11 50 -22
108 -25 130 -4 22 -8 47 -11 55 -2 8 -6 42 -9 75 -4 33 -9 83 -12 110 -3 28
-7 68 -9 90 -5 50 -6 408 -1 455 3 19 7 71 10 115 4 44 11 103 16 130 5 28 11
64 14 80 2 17 7 48 11 70 12 79 84 352 120 455 40 115 156 393 162 387 2 -2
-3 -23 -11 -45 -9 -23 -13 -42 -11 -42 3 0 0 -11 -5 -25 -21 -55 -32 -168 -34
-347 l-2 -188 60 0 61 0 2 61 c8 203 105 359 225 359 46 0 99 -19 123 -44 5
-6 33 -38 60 -71 28 -33 60 -71 73 -86 12 -14 47 -64 76 -110 80 -124 259
-410 272 -434 11 -20 487 -832 556 -949 l35 -59 -42 -71 c-23 -39 -70 -118
-105 -176 -184 -311 -263 -552 -264 -805 0 -169 57 -319 164 -425 111 -112
257 -168 459 -176 188 -7 324 40 437 151 74 74 113 130 165 241 69 144 88 287
59 443 -44 243 -148 492 -351 841 -40 69 -85 148 -100 175 l-28 50 254 427
c369 622 561 937 710 1163 72 110 173 265 223 345 124 197 155 229 224 235 38
3 63 -30 79 -103 10 -44 13 -477 14 -1957 l0 -1900 232 -1 232 -1 0 1526 c0
839 0 1554 1 1588 0 60 1 62 67 145 86 108 199 240 260 304 128 134 269 206
403 206 160 0 351 -116 423 -257 57 -114 59 -126 62 -465 5 -414 13 -1180 21
-1930 7 -721 12 -1103 13 -1111 1 -4 103 -6 229 -5 l227 1 -1 355 c-1 195 -4
627 -8 960 -3 333 -8 859 -11 1170 -9 922 -10 971 -35 1089 -39 189 -86 277
-216 400 -143 136 -242 170 -479 167 -150 -3 -186 -11 -299 -68 -125 -62 -192
-123 -441 -393 -192 -210 -231 -247 -223 -217 7 28 -51 330 -79 410 -35 101
-116 188 -229 245 -129 65 -263 48 -378 -47 -125 -103 -319 -331 -412 -483
-19 -32 -62 -96 -95 -143 -33 -47 -67 -96 -77 -110 -9 -14 -64 -92 -122 -175
-80 -115 -345 -551 -444 -730 -6 -11 -65 -111 -130 -223 -103 -176 -120 -200
-131 -185 -11 17 -317 541 -356 610 -10 18 -73 126 -140 240 -67 115 -130 222
-139 239 -44 76 -158 258 -218 344 -86 126 -131 180 -221 270 -95 95 -163 124
-283 123 -63 0 -87 -5 -135 -28 -53 -26 -129 -92 -161 -141 -7 -10 -1 4 14 31
80 148 245 380 377 530 204 232 506 492 719 620 314 188 490 271 768 361 108
36 308 88 370 98 19 3 60 10 90 16 30 6 73 13 95 16 22 3 51 7 65 10 14 2 68
7 120 10 52 3 97 8 99 10 5 5 477 -4 516 -10z m-1632 -4183 c181 -310 237
-471 232 -668 -5 -244 -117 -388 -299 -389 -87 0 -137 23 -214 98 -83 79 -109
151 -112 306 -2 113 24 222 96 399 46 112 202 393 214 386 5 -3 42 -62 83
-132z"/>
</g>
</svg>
