<svg width="375" height="375" xmlns="http://www.w3.org/2000/svg"><style>path{fill:#000;}ellipse{stroke:#F00;}@media(prefers-color-scheme:dark){path{fill:#fff;}ellipse{stroke:#fff;}}</style><g data-name="Groupe 85"><g data-name="Groupe 81" transform="scale(.91695 .98757)"><g data-name="Groupe 76"><path d="M204 210q14 22 18 35 4 12 4 20a35 35 0 0 1-5 17 40 40 0 0 1-13 15 35 35 0 0 1-20 5q-17 0-28-9a32 32 0 0 1-10-25 59 59 0 0 1 3-17q2-9 13-26l58-92 24-32 8-10 3 13-15 22-17 26-53 83a92 92 0 0 0-8 17q-3 8-3 14 0 12 6 17 6 6 13 6a16 16 0 0 0 13-6q5-7 5-16a40 40 0 0 0-3-15 89 89 0 0 0-8-16l-51-81-17-25-10-11a12 12 0 0 0-7-2q-5 0-9 6t-4 17h-7a43 43 0 0 1 0-5v-8q0-17 7-28 7-12 19-12a24 24 0 0 1 12 3q6 4 14 14t21 31z" transform="translate(-58 6)"/><path data-name="Tracé 1" d="M1352 465c-13 18-13-2-5-13 8-10 20-25 30-28 11-3 19 4 19 4s5 2 9 10c3 9 5 24 5 24l26-26s13-12 28-12 22 1 33 12c11 10 11 30 11 30l2 183h-27l-2-181a27 27 0 0 0-17-21c-11-5-20-2-28 3-7 4-26 27-26 27v172h-27V446c0-3-1-11-4-12-4 0-6 0-12 9l-15 22z" transform="translate(-1156 -347)"/></g><ellipse style="opacity:1;fill:none;stroke-width:9.76924;stroke-miterlimit:4;stroke-dasharray:none" cx="204.5" cy="189.9" rx="199.6" ry="185"/></g></g></svg>